<svg xmlns="http://www.w3.org/2000/svg" width="41.748" height="41.739" viewBox="0 0 41.748 41.739"><defs><style>.a{fill:#fff;}</style></defs><path class="a" d="M20.873,12.406a10.7,10.7,0,1,0,10.7,10.7A10.684,10.684,0,0,0,20.873,12.406Zm0,17.659a6.957,6.957,0,1,1,6.957-6.957,6.97,6.97,0,0,1-6.957,6.957Zm13.635-18.1a2.5,2.5,0,1,1-2.5-2.5A2.49,2.49,0,0,1,34.509,11.968ZM41.6,14.5c-.158-3.344-.922-6.305-3.372-8.745s-5.4-3.2-8.745-3.372c-3.446-.2-13.775-.2-17.221,0-3.334.158-6.3.922-8.745,3.362s-3.2,5.4-3.372,8.745c-.2,3.446-.2,13.775,0,17.221.158,3.344.922,6.305,3.372,8.745s5.4,3.2,8.745,3.372c3.446.2,13.775.2,17.221,0,3.344-.158,6.305-.922,8.745-3.372s3.2-5.4,3.372-8.745c.2-3.446.2-13.765,0-17.212ZM37.144,35.41a7.044,7.044,0,0,1-3.968,3.968c-2.748,1.09-9.267.838-12.3.838s-9.565.242-12.3-.838A7.044,7.044,0,0,1,4.6,35.41c-1.09-2.748-.838-9.267-.838-12.3s-.242-9.565.838-12.3A7.044,7.044,0,0,1,8.57,6.836C11.318,5.747,17.837,6,20.873,6s9.565-.242,12.3.838A7.044,7.044,0,0,1,37.144,10.8c1.09,2.748.838,9.267.838,12.3S38.234,32.672,37.144,35.41Z" transform="translate(0.005 -2.238)"/></svg>