<svg xmlns="http://www.w3.org/2000/svg" width="46.415" height="32.635" viewBox="0 0 46.415 32.635"><defs><style>.a{fill:#fff;}</style></defs><path class="a" d="M46.495,9.606a5.832,5.832,0,0,0-4.1-4.13C38.772,4.5,24.257,4.5,24.257,4.5s-14.514,0-18.134.976a5.832,5.832,0,0,0-4.1,4.13c-.97,3.643-.97,11.244-.97,11.244s0,7.6.97,11.244a5.745,5.745,0,0,0,4.1,4.064c3.62.976,18.134.976,18.134.976s14.514,0,18.134-.976a5.745,5.745,0,0,0,4.1-4.064c.97-3.643.97-11.244.97-11.244s0-7.6-.97-11.244ZM19.51,27.752v-13.8l12.131,6.9-12.131,6.9Z" transform="translate(-1.05 -4.5)"/></svg>