<svg xmlns="http://www.w3.org/2000/svg" xmlns:xlink="http://www.w3.org/1999/xlink" width="1920" height="4320" viewBox="0 0 1920 4320"><defs><style>.a,.ac,.j,.p{fill:none;}.b{clip-path:url(#q);}.c{fill:#28567a;}.c,.o,.v{stroke:#707070;}.af,.d,.e,.i,.l,.m,.o,.q,.r,.s,.u,.w,.y{fill:#fff;}.e{font-size:20px;}.e,.i,.r{font-family:OpenSans-Regular, Open Sans;}.f{fill:#3a566e;}.g{fill:#074781;}.h{fill:url(#a);}.i,.l,.m{font-size:37px;}.ac,.j,.p,.t{stroke:#fff;}.j{stroke-width:2px;}.k{fill:#1e3040;}.l,.y{font-family:OpenSans-Light, Open Sans;}.l,.m,.s,.u,.y{font-weight:300;}.m,.s,.u{font-family:Roboto-Light, Roboto;}.n{fill:url(#b);}.p,.t{stroke-width:3px;}.q{font-size:76px;}.q,.w{font-family:OpenSans-SemiBold, Open Sans;font-weight:600;}.af,.r,.u,.y{font-size:30px;}.s{font-size:38px;}.t{fill:rgba(255,255,255,0);}.v{fill:#5f5f5f;opacity:0.5;mix-blend-mode:soft-light;isolation:isolate;}.w{font-size:72px;}.x,.z{fill:#3a77a7;}.z{opacity:0.26;}.aa{clip-path:url(#m);}.ab{fill:url(#n);}.ad{fill:#36546f;}.ae{fill:url(#o);}.af{font-family:SegoeUI, Segoe UI;}.ag{stroke:none;}.ah{filter:url(#k);}</style><pattern id="a" preserveAspectRatio="xMidYMid slice" width="100%" height="100%" viewBox="0 0 1920 1017"><image width="1920" height="1017" xlink:href="../../../../../Downloads/2020-10-08_14.43.03.png"/></pattern><pattern id="b" preserveAspectRatio="xMidYMid slice" width="100%" height="100%" viewBox="0 0 256 256"><image width="256" height="256" xlink:href="../../../../../Downloads/hmas.png"/></pattern><filter id="k" x="807" y="554" width="306" height="59" filterUnits="userSpaceOnUse"><feOffset dy="3" input="SourceAlpha"/><feGaussianBlur stdDeviation="3" result="l"/><feFlood flood-opacity="0.2"/><feComposite operator="in" in2="l"/><feComposite in="SourceGraphic"/></filter><clipPath id="m"><rect class="a" width="100" height="100"/></clipPath><pattern id="n" preserveAspectRatio="xMidYMid slice" width="100%" height="100%" viewBox="0 0 4167 4167"><image width="4167" height="4167" xlink:href="../../../../../Desktop/unknown.png"/></pattern><pattern id="o" preserveAspectRatio="xMidYMid slice" width="100%" height="100%" viewBox="0 0 2069 2069"><image width="2069" height="2069" xlink:href="../../../../Drawing/sauce-chan.png"/></pattern><clipPath id="q"><rect width="1920" height="4320"/></clipPath></defs><g id="p" class="b"><rect class="k" width="1920" height="4320"/><g class="c" transform="translate(0 4198)"><rect class="ag" width="1920" height="122"/><rect class="a" x="0.5" y="0.5" width="1919" height="121"/></g><path class="d" d="M42.325,2.25H5.079A5.079,5.079,0,0,0,0,7.329V44.575a5.079,5.079,0,0,0,5.079,5.079H19.6V33.538H12.936V25.952H19.6V20.17c0-6.576,3.915-10.209,9.911-10.209a40.385,40.385,0,0,1,5.875.512v6.455H32.079c-3.26,0-4.277,2.023-4.277,4.1v4.926H35.08l-1.164,7.586H27.8V49.654H42.325A5.079,5.079,0,0,0,47.4,44.575V7.329A5.079,5.079,0,0,0,42.325,2.25Z" transform="translate(1520 4233)"/><path class="d" d="M36.5,11.616c.026.361.026.723.026,1.084,0,11.023-8.39,23.724-23.724,23.724A23.564,23.564,0,0,1,0,32.681a17.25,17.25,0,0,0,2.014.1,16.7,16.7,0,0,0,10.352-3.563,8.353,8.353,0,0,1-7.8-5.783,10.515,10.515,0,0,0,1.575.129,8.819,8.819,0,0,0,2.194-.284A8.34,8.34,0,0,1,1.652,15.1V15a8.4,8.4,0,0,0,3.769,1.058A8.351,8.351,0,0,1,2.84,4.9a23.7,23.7,0,0,0,17.193,8.726,9.413,9.413,0,0,1-.207-1.91A8.346,8.346,0,0,1,34.257,6.014,16.417,16.417,0,0,0,39.549,4a8.316,8.316,0,0,1-3.666,4.6,16.716,16.716,0,0,0,4.8-1.291A17.924,17.924,0,0,1,36.5,11.616Z" transform="translate(1579.744 4238.952)"/><path class="d" d="M24.465,20.019a2.157,2.157,0,1,1-2.149-2.339A2.245,2.245,0,0,1,24.465,20.019ZM14.624,17.68a2.347,2.347,0,0,0,0,4.678,2.245,2.245,0,0,0,2.149-2.339A2.231,2.231,0,0,0,14.624,17.68ZM36.877,4.341v37.8c-5.309-4.691-3.611-3.138-9.778-8.872l1.117,3.9H4.32A4.33,4.33,0,0,1,0,32.831V4.341A4.33,4.33,0,0,1,4.32,0H32.557A4.33,4.33,0,0,1,36.877,4.341ZM30.871,24.318a28.219,28.219,0,0,0-3.034-12.285A10.42,10.42,0,0,0,21.915,9.82l-.3.337a14.024,14.024,0,0,1,5.247,2.676,17.905,17.905,0,0,0-15.741-.611c-.78.358-1.243.611-1.243.611a14.216,14.216,0,0,1,5.542-2.76l-.211-.253a10.42,10.42,0,0,0-5.921,2.213A28.219,28.219,0,0,0,6.259,24.318s1.77,3.056,6.427,3.2c0,0,.78-.948,1.412-1.749a6.554,6.554,0,0,1-3.688-2.487c.31.217.821.5.864.527a15.361,15.361,0,0,0,13.149.738,12.059,12.059,0,0,0,2.423-1.243,6.649,6.649,0,0,1-3.814,2.508c.632.8,1.391,1.707,1.391,1.707A7.7,7.7,0,0,0,30.871,24.318Z" transform="translate(1627.648 4240.855)"/><path class="d" d="M20.873,12.406a10.7,10.7,0,1,0,10.7,10.7A10.684,10.684,0,0,0,20.873,12.406Zm0,17.659a6.957,6.957,0,1,1,6.957-6.957,6.97,6.97,0,0,1-6.957,6.957Zm13.635-18.1a2.5,2.5,0,1,1-2.5-2.5A2.49,2.49,0,0,1,34.509,11.968ZM41.6,14.5c-.158-3.344-.922-6.305-3.372-8.745s-5.4-3.2-8.745-3.372c-3.446-.2-13.775-.2-17.221,0-3.334.158-6.3.922-8.745,3.362s-3.2,5.4-3.372,8.745c-.2,3.446-.2,13.775,0,17.221.158,3.344.922,6.305,3.372,8.745s5.4,3.2,8.745,3.372c3.446.2,13.775.2,17.221,0,3.344-.158,6.305-.922,8.745-3.372s3.2-5.4,3.372-8.745c.2-3.446.2-13.765,0-17.212ZM37.144,35.41a7.044,7.044,0,0,1-3.968,3.968c-2.748,1.09-9.267.838-12.3.838s-9.565.242-12.3-.838A7.044,7.044,0,0,1,4.6,35.41c-1.09-2.748-.838-9.267-.838-12.3s-.242-9.565.838-12.3A7.044,7.044,0,0,1,8.57,6.836C11.318,5.747,17.837,6,20.873,6s9.565-.242,12.3.838A7.044,7.044,0,0,1,37.144,10.8c1.09,2.748.838,9.267.838,12.3S38.234,32.672,37.144,35.41Z" transform="translate(1677.301 4235.959)"/><path class="d" d="M46.495,9.606a5.832,5.832,0,0,0-4.1-4.13C38.772,4.5,24.257,4.5,24.257,4.5s-14.514,0-18.134.976a5.832,5.832,0,0,0-4.1,4.13c-.97,3.643-.97,11.244-.97,11.244s0,7.6.97,11.244a5.745,5.745,0,0,0,4.1,4.064c3.62.976,18.134.976,18.134.976s14.514,0,18.134-.976a5.745,5.745,0,0,0,4.1-4.064c.97-3.643.97-11.244.97-11.244s0-7.6-.97-11.244ZM19.51,27.752v-13.8l12.131,6.9-12.131,6.9Z" transform="translate(1732.535 4238.431)"/><text class="e" transform="translate(140 4245)"><tspan x="0" y="21">© Copyright - Oceania Build Team</tspan></text><g transform="translate(0 -127)"><rect class="f" width="536" height="1021" rx="26" transform="translate(140 2375)"/><rect class="g" width="536" height="697" rx="26" transform="translate(692 2699)"/><rect class="h" width="536" height="309" rx="26" transform="translate(692 2375)"/><rect class="f" width="536" height="1021" rx="26" transform="translate(1244 2375)"/><text class="i" transform="translate(283 2440)"><tspan x="-111.226" y="0">Leaderboard</tspan></text><text class="i" transform="translate(960 2755)"><tspan x="-179.21" y="0">Builder of the Month</tspan></text><text class="i" transform="translate(1661 2440)"><tspan x="-85.49" y="0">Right Side</tspan></text><line class="j" x2="487" transform="translate(169.5 2458.5)"/><line class="j" x2="487" transform="translate(716.5 2772.5)"/><line class="j" x2="487" transform="translate(1268.5 2458.5)"/><g transform="translate(169 2503)"><rect class="k" width="485" height="88" rx="44"/><text class="l" transform="translate(96 55)"><tspan x="0" y="0">HMAS_Lightning</tspan></text><text class="m" transform="translate(372 54)"><tspan x="0" y="0">10000</tspan></text><circle class="n" cx="44" cy="44" r="44"/></g><g transform="translate(164 2601)"><rect class="k" width="485" height="88" rx="44"/><text class="l" transform="translate(96 55)"><tspan x="0" y="0">HMAS_Lightning</tspan></text><text class="m" transform="translate(372 54)"><tspan x="0" y="0">10000</tspan></text><circle class="n" cx="44" cy="44" r="44"/></g><g transform="translate(164 2699)"><rect class="k" width="485" height="88" rx="44"/><text class="l" transform="translate(96 55)"><tspan x="0" y="0">HMAS_Lightning</tspan></text><text class="m" transform="translate(372 54)"><tspan x="0" y="0">10000</tspan></text><circle class="n" cx="44" cy="44" r="44"/></g><g transform="translate(164 2797)"><rect class="k" width="485" height="88" rx="44"/><text class="l" transform="translate(96 55)"><tspan x="0" y="0">HMAS_Lightning</tspan></text><text class="m" transform="translate(372 54)"><tspan x="0" y="0">10000</tspan></text><circle class="n" cx="44" cy="44" r="44"/></g><g transform="translate(164 2895)"><rect class="k" width="485" height="88" rx="44"/><text class="l" transform="translate(96 55)"><tspan x="0" y="0">HMAS_Lightning</tspan></text><text class="m" transform="translate(372 54)"><tspan x="0" y="0">10000</tspan></text><circle class="n" cx="44" cy="44" r="44"/></g><g transform="translate(164 2993)"><rect class="k" width="485" height="88" rx="44"/><text class="l" transform="translate(96 55)"><tspan x="0" y="0">HMAS_Lightning</tspan></text><text class="m" transform="translate(372 54)"><tspan x="0" y="0">10000</tspan></text><circle class="n" cx="44" cy="44" r="44"/></g><g transform="translate(164 3091)"><rect class="k" width="485" height="88" rx="44"/><text class="l" transform="translate(96 55)"><tspan x="0" y="0">HMAS_Lightning</tspan></text><text class="m" transform="translate(372 54)"><tspan x="0" y="0">10000</tspan></text><circle class="n" cx="44" cy="44" r="44"/></g><g transform="translate(164 3189)"><rect class="k" width="485" height="88" rx="44"/><text class="l" transform="translate(96 55)"><tspan x="0" y="0">HMAS_Lightning</tspan></text><text class="m" transform="translate(372 54)"><tspan x="0" y="0">10000</tspan></text><circle class="n" cx="44" cy="44" r="44"/></g><g transform="translate(164 3287)"><rect class="k" width="485" height="88" rx="44"/><text class="l" transform="translate(96 55)"><tspan x="0" y="0">HMAS_Lightning</tspan></text><text class="m" transform="translate(372 54)"><tspan x="0" y="0">10000</tspan></text><circle class="n" cx="44" cy="44" r="44"/></g></g><image width="1920" height="1200" xlink:href="../../../../../Desktop/image0.png"/><g class="o"><rect class="ag" width="1920" height="1089"/><rect class="a" x="0.5" y="0.5" width="1919" height="1088"/></g><path class="d" d="M16.568,175.931l-15.8-15.8a2.777,2.777,0,0,1,0-3.938l2.625-2.625a2.777,2.777,0,0,1,3.938,0l11.2,11.2,11.2-11.2a2.777,2.777,0,0,1,3.938,0l2.625,2.625a2.777,2.777,0,0,1,0,3.938l-15.8,15.8a2.763,2.763,0,0,1-3.926,0Z" transform="translate(941.05 858.25)"/><line class="p" x2="708" transform="translate(606 540.5)"/><text class="q" transform="translate(960 502)"><tspan x="-166.807" y="0">OCEANIA</tspan></text><g class="ah" transform="matrix(1, 0, 0, 1, 0, 0)"><text class="r" transform="translate(960 592)"><tspan x="-143.965" y="0">Minecraft | 1:1 Scale</tspan></text></g><text class="s" transform="translate(892.5 955)"><tspan x="5.991" y="36">Explore</tspan></text><g class="t" transform="translate(695 690)"><rect class="ag" width="260" height="75" rx="37.5"/><rect class="a" x="1.5" y="1.5" width="257" height="72" rx="36"/></g><g class="t" transform="translate(965 690)"><rect class="ag" width="260" height="75" rx="37.5"/><rect class="a" x="1.5" y="1.5" width="257" height="72" rx="36"/></g><text class="u" transform="translate(825 740)"><tspan x="-36.482" y="0">Apply</tspan></text><text class="u" transform="translate(1095 740)"><tspan x="-36.226" y="0">Login</tspan></text><image width="1920" height="1017" transform="translate(0 1080)" xlink:href="../../../../../Downloads/2020-10-08_14.43.03.png"/><path class="d" d="M2.451,21.324,16.31,7.465a2.436,2.436,0,0,1,3.455,0l2.3,2.3a2.436,2.436,0,0,1,0,3.455l-9.813,9.834,9.824,9.824a2.436,2.436,0,0,1,0,3.455l-2.3,2.313a2.436,2.436,0,0,1-3.455,0L2.461,24.789a2.439,2.439,0,0,1-.01-3.465Z" transform="translate(23.266 1565.254)"/><path class="d" d="M22.083,24.789,8.219,38.648a2.437,2.437,0,0,1-3.456,0l-2.3-2.3a2.435,2.435,0,0,1,0-3.455l9.827-9.824L2.459,13.243a2.435,2.435,0,0,1,0-3.455L4.753,7.465a2.437,2.437,0,0,1,3.456,0L22.073,21.324A2.438,2.438,0,0,1,22.083,24.789Z" transform="translate(1876.26 1565.254)"/><g class="v" transform="translate(0 1752)"><rect class="ag" width="1920" height="345"/><rect class="a" x="0.5" y="0.5" width="1919" height="344"/></g><text class="w" transform="translate(316 1827)"><tspan x="-229.746" y="0">Lorem Ipsum</tspan></text><text class="e" transform="translate(85 1889)"><tspan x="0" y="21">Lorem ipsum dolor sit amet, consetetur sadipscing elitr, sed diam nonumy eirmod tempor </tspan><tspan x="0" y="48">invidunt ut labore et dolore magna aliquyam erat, sed diam voluptua. At vero eos et accusam </tspan><tspan x="0" y="75">et </tspan><tspan x="0" y="102">justo duo dolores et ea rebum. Stet clita kasd gubergren, no sea takimata sanctus est Lorem </tspan><tspan x="0" y="129">ipsum dolor sit amet. Lorem ipsum dolor sit amet, consetetur sadipscing elitr, sed diam </tspan></text><line class="j" x2="518" transform="translate(85.5 1868.5)"/><g transform="translate(-11 -2)"><ellipse class="x" cx="15" cy="14" rx="15" ry="14" transform="translate(866 2046)"/><ellipse class="d" cx="15" cy="14" rx="15" ry="14" transform="translate(911 2046)"/><ellipse class="d" cx="15" cy="14" rx="15" ry="14" transform="translate(956 2046)"/><ellipse class="d" cx="15" cy="14" rx="15" ry="14" transform="translate(1001 2046)"/><ellipse class="d" cx="15" cy="14" rx="15" ry="14" transform="translate(1046 2046)"/></g><text class="r" transform="translate(1520 1979)"><tspan x="-212.314" y="32">Lorem Building</tspan></text><text class="y" transform="translate(1520 2022)"><tspan x="-123.662" y="32">Kruidnuit</tspan></text><line class="j" x2="220.5" transform="translate(1674 2022.5)"/><rect class="z" width="1920" height="128"/><g class="aa" transform="translate(39 14)"><g transform="translate(-39 -14)"><rect class="ab" width="100" height="100" transform="translate(39 14)"/></g></g><text class="r" transform="translate(164 76)"><tspan x="0" y="0">Oceania Build Team</tspan></text><g transform="translate(-60.5 2)"><g transform="translate(707.5 45)"><text class="y" transform="translate(0 32)"><tspan x="0" y="0">Showcase</tspan></text></g><text class="y" transform="translate(872.5 77)"><tspan x="0" y="0">The Team</tspan></text><text class="y" transform="translate(1036.5 77)"><tspan x="0" y="0">Apply</tspan></text><text class="y" transform="translate(1142 77)"><tspan x="0" y="0">FAQ</tspan></text><text class="y" transform="translate(1230 77)"><tspan x="0" y="0">Discord</tspan></text><line class="ac" y2="40" transform="translate(1214 45.5)"/><line class="ac" y2="40" transform="translate(1126 45.5)"/><line class="ac" y2="40" transform="translate(1020.5 44.5)"/><line class="ac" y2="40" transform="translate(857 44.5)"/></g><g transform="translate(97 -7)"><rect class="ad" width="274" height="85" rx="42.5" transform="translate(1498 29)"/><circle class="ae" cx="42.5" cy="42.5" r="42.5" transform="translate(1498 29)"/><text class="af" transform="translate(1603 84)"><tspan x="0" y="0">Coppertine</tspan></text></g><text class="l" transform="translate(960 2693)"><tspan x="-134.197" y="0">HMAS_Lightning</tspan></text></g></svg>