<svg xmlns="http://www.w3.org/2000/svg" xmlns:xlink="http://www.w3.org/1999/xlink" width="1920" height="1082" viewBox="0 0 1920 1082"><defs><style>.a{clip-path:url(#c);}.b,.l{fill:#3a77a7;}.b{stroke:#707070;}.c,.h,.i,.k,.n,.p,.q{fill:#fff;}.d,.f{fill:#615f5f;}.d,.e{font-size:26px;}.d,.e,.f,.h,.p{font-family:OpenSans-Regular, Open Sans;}.d{opacity:0.82;}.e{opacity:0.6;}.f,.h{font-size:27px;}.g{fill:#1fc430;}.i{font-size:40px;}.i,.k{font-family:SegoeUI, Segoe UI;}.j{fill:#28567a;}.k{font-size:21px;}.m{fill:#36546f;}.n,.p,.q{font-size:30px;}.n{font-family:SegoeUI-Semilight, Segoe UI;}.n,.q{font-weight:300;}.o{fill:url(#a);}.q{font-family:OpenSans-Light, Open Sans;}.r,.t{fill:none;}.r{stroke:#fff;}.s{stroke:none;}.u{fill:#1e3040;}</style><pattern id="a" preserveAspectRatio="xMidYMid slice" width="100%" height="100%" viewBox="0 0 4167 4167"><image width="4167" height="4167" xlink:href="../../../../../Desktop/unknown.png"/></pattern><clipPath id="c"><rect width="1920" height="1082"/></clipPath></defs><g id="b" class="a"><rect class="u" width="1920" height="1082"/><image width="1948" height="1032" transform="translate(-14 82)" xlink:href="../../../../../Downloads/2020-09-22_22.03.26.png"/><g transform="translate(692 285.997)"><g class="b" transform="translate(0 0.003)"><rect class="s" width="536" height="510" rx="51"/><rect class="t" x="0.5" y="0.5" width="535" height="509" rx="50.5"/></g><g transform="translate(58 116.003)"><rect class="c" width="420" height="53" rx="26.5"/><text class="d" transform="translate(30 38)"><tspan x="0" y="0">Username / Email</tspan></text></g><g transform="translate(58 231.003)"><rect class="c" width="420" height="53" rx="26.5"/><text class="e" transform="translate(30 38)"><tspan x="0" y="0">Password</tspan></text></g><g transform="translate(130 421.003)"><rect class="c" width="276" height="50" rx="25"/><text class="f" transform="translate(103 5)"><tspan x="0.742" y="29">Login</tspan></text></g><g transform="translate(130 347.003)"><path class="g" d="M25,0H251a25,25,0,0,1,0,50H25A25,25,0,0,1,25,0Z"/><text class="h" transform="translate(84 4)"><tspan x="2.979" y="29">Register</tspan></text></g><text class="i" transform="translate(268 66.003)"><tspan x="-49.072" y="0">Login</tspan></text></g><g transform="translate(0 960)"><rect class="j" width="1920" height="122"/><path class="c" d="M42.325,2.25H5.079A5.079,5.079,0,0,0,0,7.329V44.575a5.079,5.079,0,0,0,5.079,5.079H19.6V33.538H12.936V25.952H19.6V20.17c0-6.576,3.915-10.209,9.911-10.209a40.385,40.385,0,0,1,5.875.512v6.455H32.079c-3.26,0-4.277,2.023-4.277,4.1v4.926H35.08l-1.164,7.586H27.8V49.654H42.325A5.079,5.079,0,0,0,47.4,44.575V7.329A5.079,5.079,0,0,0,42.325,2.25Z" transform="translate(1520 35)"/><path class="c" d="M36.5,11.616c.026.361.026.723.026,1.084,0,11.023-8.39,23.724-23.724,23.724A23.564,23.564,0,0,1,0,32.681a17.25,17.25,0,0,0,2.014.1,16.7,16.7,0,0,0,10.352-3.563,8.353,8.353,0,0,1-7.8-5.783,10.515,10.515,0,0,0,1.575.129,8.819,8.819,0,0,0,2.194-.284A8.34,8.34,0,0,1,1.652,15.1V15a8.4,8.4,0,0,0,3.769,1.058A8.351,8.351,0,0,1,2.84,4.9a23.7,23.7,0,0,0,17.193,8.726,9.413,9.413,0,0,1-.207-1.91A8.346,8.346,0,0,1,34.257,6.014,16.417,16.417,0,0,0,39.549,4a8.316,8.316,0,0,1-3.666,4.6,16.716,16.716,0,0,0,4.8-1.291A17.924,17.924,0,0,1,36.5,11.616Z" transform="translate(1579.744 40.952)"/><path class="c" d="M24.465,20.019a2.157,2.157,0,1,1-2.149-2.339A2.245,2.245,0,0,1,24.465,20.019ZM14.624,17.68a2.347,2.347,0,0,0,0,4.678,2.245,2.245,0,0,0,2.149-2.339A2.231,2.231,0,0,0,14.624,17.68ZM36.877,4.341v37.8c-5.309-4.691-3.611-3.138-9.778-8.872l1.117,3.9H4.32A4.33,4.33,0,0,1,0,32.831V4.341A4.33,4.33,0,0,1,4.32,0H32.557A4.33,4.33,0,0,1,36.877,4.341ZM30.871,24.318a28.219,28.219,0,0,0-3.034-12.285A10.42,10.42,0,0,0,21.915,9.82l-.3.337a14.024,14.024,0,0,1,5.247,2.676,17.905,17.905,0,0,0-15.741-.611c-.78.358-1.243.611-1.243.611a14.216,14.216,0,0,1,5.542-2.76l-.211-.253a10.42,10.42,0,0,0-5.921,2.213A28.219,28.219,0,0,0,6.259,24.318s1.77,3.056,6.427,3.2c0,0,.78-.948,1.412-1.749a6.554,6.554,0,0,1-3.688-2.487c.31.217.821.5.864.527a15.361,15.361,0,0,0,13.149.738,12.059,12.059,0,0,0,2.423-1.243,6.649,6.649,0,0,1-3.814,2.508c.632.8,1.391,1.707,1.391,1.707A7.7,7.7,0,0,0,30.871,24.318Z" transform="translate(1627.648 42.855)"/><path class="c" d="M20.873,12.406a10.7,10.7,0,1,0,10.7,10.7A10.684,10.684,0,0,0,20.873,12.406Zm0,17.659a6.957,6.957,0,1,1,6.957-6.957,6.97,6.97,0,0,1-6.957,6.957Zm13.635-18.1a2.5,2.5,0,1,1-2.5-2.5A2.49,2.49,0,0,1,34.509,11.968ZM41.6,14.5c-.158-3.344-.922-6.305-3.372-8.745s-5.4-3.2-8.745-3.372c-3.446-.2-13.775-.2-17.221,0-3.334.158-6.3.922-8.745,3.362s-3.2,5.4-3.372,8.745c-.2,3.446-.2,13.775,0,17.221.158,3.344.922,6.305,3.372,8.745s5.4,3.2,8.745,3.372c3.446.2,13.775.2,17.221,0,3.344-.158,6.305-.922,8.745-3.372s3.2-5.4,3.372-8.745c.2-3.446.2-13.765,0-17.212ZM37.144,35.41a7.044,7.044,0,0,1-3.968,3.968c-2.748,1.09-9.267.838-12.3.838s-9.565.242-12.3-.838A7.044,7.044,0,0,1,4.6,35.41c-1.09-2.748-.838-9.267-.838-12.3s-.242-9.565.838-12.3A7.044,7.044,0,0,1,8.57,6.836C11.318,5.747,17.837,6,20.873,6s9.565-.242,12.3.838A7.044,7.044,0,0,1,37.144,10.8c1.09,2.748.838,9.267.838,12.3S38.234,32.672,37.144,35.41Z" transform="translate(1677.301 37.959)"/><path class="c" d="M46.495,9.606a5.832,5.832,0,0,0-4.1-4.13C38.772,4.5,24.257,4.5,24.257,4.5s-14.514,0-18.134.976a5.832,5.832,0,0,0-4.1,4.13c-.97,3.643-.97,11.244-.97,11.244s0,7.6.97,11.244a5.745,5.745,0,0,0,4.1,4.064c3.62.976,18.134.976,18.134.976s14.514,0,18.134-.976a5.745,5.745,0,0,0,4.1-4.064c.97-3.643.97-11.244.97-11.244s0-7.6-.97-11.244ZM19.51,27.752v-13.8l12.131,6.9-12.131,6.9Z" transform="translate(1732.535 40.431)"/><text class="k" transform="translate(140 43)"><tspan x="0" y="23">© Copyright - Oceania Build Team</tspan></text></g><rect class="l" width="1920" height="128"/><g transform="translate(1595 22)"><rect class="m" width="274" height="85" rx="42.5"/><text class="n" transform="translate(137 54)"><tspan x="-101.111" y="0">Login / Register</tspan></text></g><g transform="translate(39 14)"><rect class="o" width="100" height="100"/><text class="p" transform="translate(125 62)"><tspan x="0" y="0">Oceania Build Team</tspan></text></g><g transform="translate(647 46.5)"><g transform="translate(0 0.5)"><text class="q" transform="translate(0 32)"><tspan x="0" y="0">Showcase</tspan></text></g><text class="q" transform="translate(165 32.5)"><tspan x="0" y="0">The Team</tspan></text><text class="q" transform="translate(329 32.5)"><tspan x="0" y="0">Apply</tspan></text><text class="q" transform="translate(434.5 32.5)"><tspan x="0" y="0">FAQ</tspan></text><text class="q" transform="translate(522.5 32.5)"><tspan x="0" y="0">Discord</tspan></text><line class="r" y2="40" transform="translate(506.5 1)"/><line class="r" y2="40" transform="translate(418.5 1)"/><line class="r" y2="40" transform="translate(313)"/><line class="r" y2="40" transform="translate(149.5)"/></g></g></svg>