<svg xmlns="http://www.w3.org/2000/svg" xmlns:xlink="http://www.w3.org/1999/xlink" width="1920" height="1266" viewBox="0 0 1920 1266"><defs><style>.a{clip-path:url(#p);}.b{fill:#28567a;}.b,.f,.g{stroke:#707070;}.c,.d,.f,.h,.i,.j,.n,.q,.t,.u{fill:#fff;}.d{font-size:20px;}.d,.h,.q{font-family:OpenSans-Regular, Open Sans;}.e{fill:url(#a);}.f,.l{opacity:0;}.g{fill:#707070;}.h{font-size:21px;}.i{font-size:25px;}.i,.k,.n{font-family:NotoSans-SemiBold, Noto Sans;font-weight:600;}.j,.m{stroke:#3e3e3e;}.j{stroke-width:2px;}.k{fill:#3e3e3e;font-size:16px;}.l{fill:#fcfcfc;}.m{fill:rgba(0,0,0,0);stroke-linecap:round;stroke-linejoin:round;stroke-width:1.667px;}.n{font-size:49px;}.o{fill:#3a77a7;}.p{fill:url(#m);}.q,.t,.u{font-size:30px;}.r{fill:#36546f;}.s{fill:url(#n);}.t{font-family:Roboto-Light, Roboto;}.t,.u{font-weight:300;}.u{font-family:OpenSans-Light, Open Sans;}.v,.x{fill:none;}.v{stroke:#fff;}.w{stroke:none;}.y{fill:#1e3040;}</style><pattern id="a" preserveAspectRatio="none" width="100%" height="100%" viewBox="0 0 1920 1017"><image width="1920" height="1017" xlink:href="../../../../../Downloads/2020-10-23_20.23.59.png"/></pattern><pattern id="m" preserveAspectRatio="xMidYMid slice" width="100%" height="100%" viewBox="0 0 4167 4167"><image width="4167" height="4167" xlink:href="../../../../../Desktop/unknown.png"/></pattern><pattern id="n" preserveAspectRatio="xMidYMid slice" width="100%" height="100%" viewBox="0 0 2069 2069"><image width="2069" height="2069" xlink:href="../../../../Drawing/sauce-chan.png"/></pattern><clipPath id="p"><rect width="1920" height="1266"/></clipPath></defs><g id="o" class="a"><rect class="y" width="1920" height="1266"/><g transform="translate(0 1144)"><g class="b"><rect class="w" width="1920" height="122"/><rect class="x" x="0.5" y="0.5" width="1919" height="121"/></g><path class="c" d="M42.325,2.25H5.079A5.079,5.079,0,0,0,0,7.329V44.575a5.079,5.079,0,0,0,5.079,5.079H19.6V33.538H12.936V25.952H19.6V20.17c0-6.576,3.915-10.209,9.911-10.209a40.385,40.385,0,0,1,5.875.512v6.455H32.079c-3.26,0-4.277,2.023-4.277,4.1v4.926H35.08l-1.164,7.586H27.8V49.654H42.325A5.079,5.079,0,0,0,47.4,44.575V7.329A5.079,5.079,0,0,0,42.325,2.25Z" transform="translate(1520 35)"/><path class="c" d="M36.5,11.616c.026.361.026.723.026,1.084,0,11.023-8.39,23.724-23.724,23.724A23.564,23.564,0,0,1,0,32.681a17.25,17.25,0,0,0,2.014.1,16.7,16.7,0,0,0,10.352-3.563,8.353,8.353,0,0,1-7.8-5.783,10.515,10.515,0,0,0,1.575.129,8.819,8.819,0,0,0,2.194-.284A8.34,8.34,0,0,1,1.652,15.1V15a8.4,8.4,0,0,0,3.769,1.058A8.351,8.351,0,0,1,2.84,4.9a23.7,23.7,0,0,0,17.193,8.726,9.413,9.413,0,0,1-.207-1.91A8.346,8.346,0,0,1,34.257,6.014,16.417,16.417,0,0,0,39.549,4a8.316,8.316,0,0,1-3.666,4.6,16.716,16.716,0,0,0,4.8-1.291A17.924,17.924,0,0,1,36.5,11.616Z" transform="translate(1579.744 40.952)"/><path class="c" d="M24.465,20.019a2.157,2.157,0,1,1-2.149-2.339A2.245,2.245,0,0,1,24.465,20.019ZM14.624,17.68a2.347,2.347,0,0,0,0,4.678,2.245,2.245,0,0,0,2.149-2.339A2.231,2.231,0,0,0,14.624,17.68ZM36.877,4.341v37.8c-5.309-4.691-3.611-3.138-9.778-8.872l1.117,3.9H4.32A4.33,4.33,0,0,1,0,32.831V4.341A4.33,4.33,0,0,1,4.32,0H32.557A4.33,4.33,0,0,1,36.877,4.341ZM30.871,24.318a28.219,28.219,0,0,0-3.034-12.285A10.42,10.42,0,0,0,21.915,9.82l-.3.337a14.024,14.024,0,0,1,5.247,2.676,17.905,17.905,0,0,0-15.741-.611c-.78.358-1.243.611-1.243.611a14.216,14.216,0,0,1,5.542-2.76l-.211-.253a10.42,10.42,0,0,0-5.921,2.213A28.219,28.219,0,0,0,6.259,24.318s1.77,3.056,6.427,3.2c0,0,.78-.948,1.412-1.749a6.554,6.554,0,0,1-3.688-2.487c.31.217.821.5.864.527a15.361,15.361,0,0,0,13.149.738,12.059,12.059,0,0,0,2.423-1.243,6.649,6.649,0,0,1-3.814,2.508c.632.8,1.391,1.707,1.391,1.707A7.7,7.7,0,0,0,30.871,24.318Z" transform="translate(1627.648 42.855)"/><path class="c" d="M20.873,12.406a10.7,10.7,0,1,0,10.7,10.7A10.684,10.684,0,0,0,20.873,12.406Zm0,17.659a6.957,6.957,0,1,1,6.957-6.957,6.97,6.97,0,0,1-6.957,6.957Zm13.635-18.1a2.5,2.5,0,1,1-2.5-2.5A2.49,2.49,0,0,1,34.509,11.968ZM41.6,14.5c-.158-3.344-.922-6.305-3.372-8.745s-5.4-3.2-8.745-3.372c-3.446-.2-13.775-.2-17.221,0-3.334.158-6.3.922-8.745,3.362s-3.2,5.4-3.372,8.745c-.2,3.446-.2,13.775,0,17.221.158,3.344.922,6.305,3.372,8.745s5.4,3.2,8.745,3.372c3.446.2,13.775.2,17.221,0,3.344-.158,6.305-.922,8.745-3.372s3.2-5.4,3.372-8.745c.2-3.446.2-13.765,0-17.212ZM37.144,35.41a7.044,7.044,0,0,1-3.968,3.968c-2.748,1.09-9.267.838-12.3.838s-9.565.242-12.3-.838A7.044,7.044,0,0,1,4.6,35.41c-1.09-2.748-.838-9.267-.838-12.3s-.242-9.565.838-12.3A7.044,7.044,0,0,1,8.57,6.836C11.318,5.747,17.837,6,20.873,6s9.565-.242,12.3.838A7.044,7.044,0,0,1,37.144,10.8c1.09,2.748.838,9.267.838,12.3S38.234,32.672,37.144,35.41Z" transform="translate(1677.301 37.959)"/><path class="c" d="M46.495,9.606a5.832,5.832,0,0,0-4.1-4.13C38.772,4.5,24.257,4.5,24.257,4.5s-14.514,0-18.134.976a5.832,5.832,0,0,0-4.1,4.13c-.97,3.643-.97,11.244-.97,11.244s0,7.6.97,11.244a5.745,5.745,0,0,0,4.1,4.064c3.62.976,18.134.976,18.134.976s14.514,0,18.134-.976a5.745,5.745,0,0,0,4.1-4.064c.97-3.643.97-11.244.97-11.244s0-7.6-.97-11.244ZM19.51,27.752v-13.8l12.131,6.9-12.131,6.9Z" transform="translate(1732.535 40.431)"/><text class="d" transform="translate(140 48)"><tspan x="0" y="21">© Copyright - Oceania Build Team</tspan></text></g><g transform="translate(141.5 218)"><rect class="e" width="398" height="211" transform="translate(417 125)"/><rect class="e" width="398" height="211" transform="translate(834 125)"/><rect class="e" width="398" height="211" transform="translate(1251 125)"/><rect class="e" width="398" height="211" transform="translate(0 383)"/><rect class="e" width="398" height="211" transform="translate(417 383)"/><rect class="e" width="398" height="211" transform="translate(834 383)"/><rect class="e" width="398" height="211" transform="translate(1251 383)"/><rect class="e" width="398" height="211" transform="translate(0 641)"/><rect class="e" width="398" height="211" transform="translate(417 641)"/><rect class="e" width="398" height="211" transform="translate(834 641)"/><rect class="e" width="398" height="211" transform="translate(1251 641)"/><rect class="e" width="398" height="211" transform="translate(0 125)"/><g transform="translate(-1.5 125)"><g class="f"><rect class="w" width="400" height="211"/><rect class="x" x="0.5" y="0.5" width="399" height="210"/></g></g><g class="g"><rect class="w" width="536" height="55" rx="23"/><rect class="x" x="0.5" y="0.5" width="535" height="54" rx="22.5"/></g><text class="h" transform="translate(40 37)"><tspan x="0" y="0">Search</tspan></text><g transform="translate(837.5 11)"><text class="i" transform="translate(0 27)"><tspan x="0" y="0">Advanced Search</tspan></text><path class="c" d="M20.3,24.75H2.2a1.406,1.406,0,0,1-.994-2.4L10.256,13.3a1.406,1.406,0,0,1,1.989,0l9.047,9.047A1.406,1.406,0,0,1,20.3,24.75Z" transform="translate(218.5 -2)"/></g><path class="c" d="M35.508,31.127l-7.01-7.01a1.686,1.686,0,0,0-1.2-.492H26.156a14.618,14.618,0,1,0-2.531,2.531V27.3a1.686,1.686,0,0,0,.492,1.2l7.01,7.01a1.681,1.681,0,0,0,2.384,0l1.99-1.99a1.7,1.7,0,0,0,.007-2.391Zm-20.883-7.5a9,9,0,1,1,9-9A8.995,8.995,0,0,1,14.625,23.625Z" transform="translate(490.4 9.498)"/><g transform="translate(611 3)"><g class="j"><rect class="w" width="201" height="52"/><rect class="x" x="1" y="1" width="199" height="50"/></g><g class="j"><rect class="w" width="201" height="52"/><rect class="x" x="1" y="1" width="199" height="50"/></g><text class="k" transform="translate(16 32)"><tspan x="0" y="0">Region</tspan></text><g transform="translate(165 16)"><rect class="l" width="20" height="20"/><g transform="translate(5 7.5)"><path class="m" d="M5,7.5l5,5,5-5" transform="translate(-5 -7.5)"/></g></g></g><text class="n" transform="translate(-1.5 -28)"><tspan x="0" y="0">Showcase</tspan></text></g><rect class="o" width="1920" height="128"/><g transform="translate(39 14)"><rect class="p" width="100" height="100"/><text class="q" transform="translate(125 62)"><tspan x="0" y="0">Oceania Build Team</tspan></text></g><g transform="translate(97 -7)"><rect class="r" width="274" height="85" rx="42.5" transform="translate(1498 29)"/><circle class="s" cx="42.5" cy="42.5" r="42.5" transform="translate(1498 29)"/><text class="t" transform="translate(1603 84)"><tspan x="0" y="0">Coppertine</tspan></text></g><g transform="translate(-60.5 2)"><g transform="translate(707.5 45)"><text class="u" transform="translate(0 32)"><tspan x="0" y="0">Showcase</tspan></text></g><text class="u" transform="translate(872.5 77)"><tspan x="0" y="0">The Team</tspan></text><text class="u" transform="translate(1036.5 77)"><tspan x="0" y="0">Apply</tspan></text><text class="u" transform="translate(1142 77)"><tspan x="0" y="0">FAQ</tspan></text><text class="u" transform="translate(1230 77)"><tspan x="0" y="0">Discord</tspan></text><line class="v" y2="40" transform="translate(1214 45.5)"/><line class="v" y2="40" transform="translate(1126 45.5)"/><line class="v" y2="40" transform="translate(1020.5 44.5)"/><line class="v" y2="40" transform="translate(857 44.5)"/></g></g></svg>