<svg xmlns="http://www.w3.org/2000/svg" xmlns:xlink="http://www.w3.org/1999/xlink" width="1920" height="1584" viewBox="0 0 1920 1584"><defs><style>.a,.n,.z{fill:none;}.b{clip-path:url(#q);}.c{fill:#28567a;}.c,.h{stroke:#707070;}.d,.e,.i,.j,.k,.q,.t,.w,.y{fill:#fff;}.e{font-size:20px;font-family:OpenSans-Regular, Open Sans;}.f{clip-path:url(#a);}.g{fill:url(#b);}.h{fill:#707070;}.i{font-size:21px;}.i,.t{font-family:SegoeUI, Segoe UI;}.j{font-size:25px;}.j,.l,.q{font-family:NotoSans-SemiBold, Noto Sans;font-weight:600;}.k,.n,.p{stroke:#3e3e3e;}.k{stroke-width:2px;}.l{fill:#3e3e3e;font-size:16px;}.m{fill:rgba(253,73,198,0.35);}.m,.o{opacity:0;}.n,.p{stroke-linecap:round;stroke-linejoin:round;stroke-width:1.667px;}.o{fill:#fcfcfc;}.p{fill:rgba(0,0,0,0);}.q{font-size:49px;}.r{fill:#3a77a7;}.s{fill:url(#n);}.t,.w,.x,.y{font-size:30px;}.u{fill:#36546f;}.v{fill:url(#o);}.w,.x{font-family:SegoeUI-Semilight, Segoe UI;}.w,.x,.y{font-weight:300;}.x{fill:#0c3356;}.y{font-family:OpenSans-Light, Open Sans;}.z{stroke:#fff;}.aa{stroke:none;}.ab{fill:#1e3040;}</style><clipPath id="a"><rect class="a" width="1637" height="737"/></clipPath><pattern id="b" preserveAspectRatio="none" width="100%" height="100%" viewBox="0 0 1920 1017"><image width="1920" height="1017" xlink:href="../../../../../Downloads/2020-10-23_20.23.59.png"/></pattern><pattern id="n" preserveAspectRatio="xMidYMid slice" width="100%" height="100%" viewBox="0 0 4167 4167"><image width="4167" height="4167" xlink:href="../../../../../Desktop/unknown.png"/></pattern><pattern id="o" preserveAspectRatio="xMidYMid slice" width="100%" height="100%" viewBox="0 0 2069 2069"><image width="2069" height="2069" xlink:href="../../../../Drawing/sauce-chan.png"/></pattern><clipPath id="q"><rect width="1920" height="1584"/></clipPath></defs><g id="p" class="b"><rect class="ab" width="1920" height="1584"/><g transform="translate(0 1462)"><g class="c"><rect class="aa" width="1920" height="122"/><rect class="a" x="0.5" y="0.5" width="1919" height="121"/></g><path class="d" d="M42.325,2.25H5.079A5.079,5.079,0,0,0,0,7.329V44.575a5.079,5.079,0,0,0,5.079,5.079H19.6V33.538H12.936V25.952H19.6V20.17c0-6.576,3.915-10.209,9.911-10.209a40.385,40.385,0,0,1,5.875.512v6.455H32.079c-3.26,0-4.277,2.023-4.277,4.1v4.926H35.08l-1.164,7.586H27.8V49.654H42.325A5.079,5.079,0,0,0,47.4,44.575V7.329A5.079,5.079,0,0,0,42.325,2.25Z" transform="translate(1520 35)"/><path class="d" d="M36.5,11.616c.026.361.026.723.026,1.084,0,11.023-8.39,23.724-23.724,23.724A23.564,23.564,0,0,1,0,32.681a17.25,17.25,0,0,0,2.014.1,16.7,16.7,0,0,0,10.352-3.563,8.353,8.353,0,0,1-7.8-5.783,10.515,10.515,0,0,0,1.575.129,8.819,8.819,0,0,0,2.194-.284A8.34,8.34,0,0,1,1.652,15.1V15a8.4,8.4,0,0,0,3.769,1.058A8.351,8.351,0,0,1,2.84,4.9a23.7,23.7,0,0,0,17.193,8.726,9.413,9.413,0,0,1-.207-1.91A8.346,8.346,0,0,1,34.257,6.014,16.417,16.417,0,0,0,39.549,4a8.316,8.316,0,0,1-3.666,4.6,16.716,16.716,0,0,0,4.8-1.291A17.924,17.924,0,0,1,36.5,11.616Z" transform="translate(1579.744 40.952)"/><path class="d" d="M24.465,20.019a2.157,2.157,0,1,1-2.149-2.339A2.245,2.245,0,0,1,24.465,20.019ZM14.624,17.68a2.347,2.347,0,0,0,0,4.678,2.245,2.245,0,0,0,2.149-2.339A2.231,2.231,0,0,0,14.624,17.68ZM36.877,4.341v37.8c-5.309-4.691-3.611-3.138-9.778-8.872l1.117,3.9H4.32A4.33,4.33,0,0,1,0,32.831V4.341A4.33,4.33,0,0,1,4.32,0H32.557A4.33,4.33,0,0,1,36.877,4.341ZM30.871,24.318a28.219,28.219,0,0,0-3.034-12.285A10.42,10.42,0,0,0,21.915,9.82l-.3.337a14.024,14.024,0,0,1,5.247,2.676,17.905,17.905,0,0,0-15.741-.611c-.78.358-1.243.611-1.243.611a14.216,14.216,0,0,1,5.542-2.76l-.211-.253a10.42,10.42,0,0,0-5.921,2.213A28.219,28.219,0,0,0,6.259,24.318s1.77,3.056,6.427,3.2c0,0,.78-.948,1.412-1.749a6.554,6.554,0,0,1-3.688-2.487c.31.217.821.5.864.527a15.361,15.361,0,0,0,13.149.738,12.059,12.059,0,0,0,2.423-1.243,6.649,6.649,0,0,1-3.814,2.508c.632.8,1.391,1.707,1.391,1.707A7.7,7.7,0,0,0,30.871,24.318Z" transform="translate(1627.648 42.855)"/><path class="d" d="M20.873,12.406a10.7,10.7,0,1,0,10.7,10.7A10.684,10.684,0,0,0,20.873,12.406Zm0,17.659a6.957,6.957,0,1,1,6.957-6.957,6.97,6.97,0,0,1-6.957,6.957Zm13.635-18.1a2.5,2.5,0,1,1-2.5-2.5A2.49,2.49,0,0,1,34.509,11.968ZM41.6,14.5c-.158-3.344-.922-6.305-3.372-8.745s-5.4-3.2-8.745-3.372c-3.446-.2-13.775-.2-17.221,0-3.334.158-6.3.922-8.745,3.362s-3.2,5.4-3.372,8.745c-.2,3.446-.2,13.775,0,17.221.158,3.344.922,6.305,3.372,8.745s5.4,3.2,8.745,3.372c3.446.2,13.775.2,17.221,0,3.344-.158,6.305-.922,8.745-3.372s3.2-5.4,3.372-8.745c.2-3.446.2-13.765,0-17.212ZM37.144,35.41a7.044,7.044,0,0,1-3.968,3.968c-2.748,1.09-9.267.838-12.3.838s-9.565.242-12.3-.838A7.044,7.044,0,0,1,4.6,35.41c-1.09-2.748-.838-9.267-.838-12.3s-.242-9.565.838-12.3A7.044,7.044,0,0,1,8.57,6.836C11.318,5.747,17.837,6,20.873,6s9.565-.242,12.3.838A7.044,7.044,0,0,1,37.144,10.8c1.09,2.748.838,9.267.838,12.3S38.234,32.672,37.144,35.41Z" transform="translate(1677.301 37.959)"/><path class="d" d="M46.495,9.606a5.832,5.832,0,0,0-4.1-4.13C38.772,4.5,24.257,4.5,24.257,4.5s-14.514,0-18.134.976a5.832,5.832,0,0,0-4.1,4.13c-.97,3.643-.97,11.244-.97,11.244s0,7.6.97,11.244a5.745,5.745,0,0,0,4.1,4.064c3.62.976,18.134.976,18.134.976s14.514,0,18.134-.976a5.745,5.745,0,0,0,4.1-4.064c.97-3.643.97-11.244.97-11.244s0-7.6-.97-11.244ZM19.51,27.752v-13.8l12.131,6.9-12.131,6.9Z" transform="translate(1732.535 40.431)"/><text class="e" transform="translate(140 43)"><tspan x="0" y="21">© Copyright - Oceania Build Team</tspan></text></g><g transform="translate(141.5 214)"><g class="f" transform="translate(0 333)"><g transform="translate(-213 -453)"><rect class="g" width="398" height="211" transform="translate(213 453)"/></g><g transform="translate(204 -453)"><rect class="g" width="398" height="211" transform="translate(213 453)"/></g><g transform="translate(621 -453)"><rect class="g" width="398" height="211" transform="translate(213 453)"/></g><g transform="translate(1038 -453)"><rect class="g" width="398" height="211" transform="translate(213 453)"/></g><g transform="translate(-213 -195)"><rect class="g" width="398" height="211" transform="translate(213 453)"/></g><g transform="translate(204 -195)"><rect class="g" width="398" height="211" transform="translate(213 453)"/></g><g transform="translate(621 -195)"><rect class="g" width="398" height="211" transform="translate(213 453)"/></g><g transform="translate(1038 -195)"><rect class="g" width="398" height="211" transform="translate(213 453)"/></g><g transform="translate(-213 63)"><rect class="g" width="398" height="211" transform="translate(213 453)"/></g><g transform="translate(204 63)"><rect class="g" width="398" height="211" transform="translate(213 453)"/></g><g transform="translate(621 63)"><rect class="g" width="398" height="211" transform="translate(213 453)"/></g><g transform="translate(1038 63)"><rect class="g" width="398" height="211" transform="translate(213 453)"/></g></g><g transform="translate(0 11)"><g class="h"><rect class="aa" width="536" height="55" rx="23"/><rect class="a" x="0.5" y="0.5" width="535" height="54" rx="22.5"/></g><path class="d" d="M35.508,31.127l-7.01-7.01a1.686,1.686,0,0,0-1.2-.492H26.156a14.618,14.618,0,1,0-2.531,2.531V27.3a1.686,1.686,0,0,0,.492,1.2l7.01,7.01a1.681,1.681,0,0,0,2.384,0l1.99-1.99a1.7,1.7,0,0,0,.007-2.391Zm-20.883-7.5a9,9,0,1,1,9-9A8.995,8.995,0,0,1,14.625,23.625Z" transform="translate(490.4 9.498)"/><text class="i" transform="translate(40 37)"><tspan x="0" y="0">Search</tspan></text><g transform="translate(844.5 12)"><text class="j" transform="translate(0 27)"><tspan x="0" y="0">Advanced Search</tspan></text><path class="d" d="M2.2,13.5H20.292a1.4,1.4,0,0,1,.991,2.4l-9.042,9.049a1.409,1.409,0,0,1-1.99,0L1.209,15.9A1.4,1.4,0,0,1,2.2,13.5Z" transform="translate(218.522 -2.429)"/><g transform="translate(-986 -198)"><g transform="translate(1244 225)"><text class="j" transform="translate(-1104 82)"><tspan x="0" y="0">Date:</tspan></text></g><g transform="translate(3305 273)"><g transform="translate(-2097.5)"><g class="k" transform="translate(-996)"><rect class="aa" width="144" height="48"/><rect class="a" x="1" y="1" width="142" height="46"/></g><text class="l" transform="translate(-980 30)"><tspan x="0" y="0">2020-01-01</tspan></text><g transform="translate(-888 14)"><rect class="m" width="20" height="20"/><g transform="translate(-1101.5 1.667)"><rect class="n" width="15" height="15" rx="2" transform="translate(1104 1.666)"/><line class="n" y2="3.333" transform="translate(1114.833 0)"/><line class="n" y2="3.333" transform="translate(1108.167 0)"/><line class="n" x2="15" transform="translate(1104 6.666)"/></g></g></g></g><g transform="translate(140 339)"><g class="k"><rect class="aa" width="260" height="48"/><rect class="a" x="1" y="1" width="258" height="46"/></g><text class="l" transform="translate(16 30)"><tspan x="0" y="0">Builder Rank</tspan></text><g transform="translate(224 14)"><rect class="o" width="20" height="20"/><g transform="translate(5 7.5)"><path class="p" d="M5,7.5l5,5,5-5" transform="translate(-5 -7.5)"/></g></g></g></g></g><g transform="translate(611 3)"><g class="k"><rect class="aa" width="201" height="52"/><rect class="a" x="1" y="1" width="199" height="50"/></g><text class="l" transform="translate(16 32)"><tspan x="0" y="0">Region</tspan></text><g transform="translate(165 16)"><rect class="o" width="20" height="20"/><g transform="translate(5 7.5)"><path class="p" d="M5,7.5l5,5,5-5" transform="translate(-5 -7.5)"/></g></g></g></g><text class="q" transform="translate(-1.5 -24)"><tspan x="0" y="0">Showcase</tspan></text></g><rect class="r" width="1920" height="128"/><g transform="translate(39 14)"><rect class="s" width="100" height="100"/><text class="t" transform="translate(125 62)"><tspan x="0" y="0">Oceania Build Team</tspan></text></g><g transform="translate(1595 22)"><rect class="u" width="274" height="85" rx="42.5"/><circle class="v" cx="42.5" cy="42.5" r="42.5"/><text class="w" transform="translate(105 55)"><tspan x="0" y="0">Coppertine</tspan></text></g><g transform="translate(-60.5 2)"><g transform="translate(707.5 45)"><text class="x" transform="translate(0 32)"><tspan x="0" y="0">Showcase</tspan></text></g><text class="y" transform="translate(872.5 77)"><tspan x="0" y="0">The Team</tspan></text><text class="y" transform="translate(1036.5 77)"><tspan x="0" y="0">Apply</tspan></text><text class="y" transform="translate(1142 77)"><tspan x="0" y="0">FAQ</tspan></text><text class="y" transform="translate(1230 77)"><tspan x="0" y="0">Discord</tspan></text><line class="z" y2="40" transform="translate(1214 45.5)"/><line class="z" y2="40" transform="translate(1126 45.5)"/><line class="z" y2="40" transform="translate(1020.5 44.5)"/><line class="z" y2="40" transform="translate(857 44.5)"/></g></g></svg>