<svg xmlns="http://www.w3.org/2000/svg" xmlns:xlink="http://www.w3.org/1999/xlink" width="1920" height="3045" viewBox="0 0 1920 3045"><defs><style>.a,.ab,.ac,.d,.e,.f,.i,.k,.m,.z{fill:#fff;}.a,.j,.n,.o,.r,.t,.u,.v{stroke:#707070;}.b{clip-path:url(#s);}.c{fill:#28567a;}.e{font-size:20px;}.ab,.e{font-family:OpenSans-Regular, Open Sans;}.f{font-size:49px;font-family:OpenSans-Bold, Open Sans;font-weight:700;}.ad,.af,.g,.r{fill:none;}.ad,.g{stroke:#fff;}.g{stroke-width:4px;}.h{fill:url(#a);}.i{font-size:31px;font-family:NotoSans-SemiBold, Noto Sans;}.i,.k{font-weight:600;}.j,.s{fill:url(#b);}.k{font-size:45px;font-family:OpenSans-SemiBold, Open Sans;}.l{fill:url(#c);}.m{font-size:29px;}.ac,.m{font-family:OpenSans-Light, Open Sans;}.ac,.m,.z{font-weight:300;}.n,.y{fill:url(#d);}.o{fill:url(#e);}.p{fill:url(#f);}.q{clip-path:url(#g);}.r{stroke-width:5px;}.t{fill:url(#j);}.u{fill:url(#l);}.v{fill:url(#n);}.w{fill:#3a77a7;}.x{fill:#36546f;}.ab,.ac,.z{font-size:30px;}.z{font-family:SegoeUI-Semilight, Segoe UI;}.aa{fill:url(#q);}.ae{stroke:none;}.ag{fill:#1e3040;}</style><pattern id="a" preserveAspectRatio="xMidYMid slice" width="100%" height="100%" viewBox="0 0 255 255"><image width="255" height="255" xlink:href="../../../../../Downloads/seas.png"/></pattern><pattern id="b" preserveAspectRatio="xMidYMid slice" width="100%" height="100%" viewBox="0 0 256 256"><image width="256" height="256" xlink:href="../../../../../Downloads/hmas.png"/></pattern><pattern id="c" preserveAspectRatio="xMidYMid slice" width="100%" height="100%" viewBox="0 0 195 195"><image width="195" height="195" xlink:href="../../../../../Downloads/167a12199fd25c1a90256728f0bac29f.png"/></pattern><pattern id="d" preserveAspectRatio="xMidYMid slice" width="100%" height="100%" viewBox="0 0 2069 2069"><image width="2069" height="2069" xlink:href="../../../../Drawing/sauce-chan.png"/></pattern><pattern id="e" preserveAspectRatio="xMidYMid slice" width="100%" height="100%" viewBox="0 0 256 256"><image width="256" height="256" xlink:href="../../../../../Downloads/ae1366995b4f5fe769b69536f50ec296.png"/></pattern><pattern id="f" preserveAspectRatio="xMidYMid slice" width="100%" height="100%" viewBox="0 0 256 256"><image width="256" height="256" xlink:href="../../../../../Downloads/cbdf0d7f622d3efd65d44e0df3950e22.png"/></pattern><clipPath id="g"><circle class="a" cx="100.5" cy="100.5" r="100.5" transform="translate(0 -0.421)"/></clipPath><pattern id="j" preserveAspectRatio="xMidYMid slice" width="100%" height="100%" viewBox="0 0 250 250"><image width="250" height="250" xlink:href="../../../../../Downloads/8204a6f06f8ee825860435c3f3aaa9c2.png"/></pattern><pattern id="l" preserveAspectRatio="xMidYMid slice" width="100%" height="100%" viewBox="0 0 256 256"><image width="256" height="256" xlink:href="../../../../../Downloads/eaf376131926d620e09a627729347d58.png"/></pattern><pattern id="n" preserveAspectRatio="xMidYMid slice" width="100%" height="100%" viewBox="0 0 256 256"><image width="256" height="256" xlink:href="../../../../../Downloads/0f20aeeaf41816ed47289fb1cfe36551.png"/></pattern><pattern id="q" preserveAspectRatio="xMidYMid slice" width="100%" height="100%" viewBox="0 0 4167 4167"><image width="4167" height="4167" xlink:href="../../../../../Desktop/unknown.png"/></pattern><clipPath id="s"><rect width="1920" height="3045"/></clipPath></defs><g id="r" class="b"><rect class="ag" width="1920" height="3045"/><g transform="translate(0 2923)"><rect class="c" width="1920" height="122"/><path class="d" d="M42.325,2.25H5.079A5.079,5.079,0,0,0,0,7.329V44.575a5.079,5.079,0,0,0,5.079,5.079H19.6V33.538H12.936V25.952H19.6V20.17c0-6.576,3.915-10.209,9.911-10.209a40.385,40.385,0,0,1,5.875.512v6.455H32.079c-3.26,0-4.277,2.023-4.277,4.1v4.926H35.08l-1.164,7.586H27.8V49.654H42.325A5.079,5.079,0,0,0,47.4,44.575V7.329A5.079,5.079,0,0,0,42.325,2.25Z" transform="translate(1520 35)"/><path class="d" d="M36.5,11.616c.026.361.026.723.026,1.084,0,11.023-8.39,23.724-23.724,23.724A23.564,23.564,0,0,1,0,32.681a17.25,17.25,0,0,0,2.014.1,16.7,16.7,0,0,0,10.352-3.563,8.353,8.353,0,0,1-7.8-5.783,10.515,10.515,0,0,0,1.575.129,8.819,8.819,0,0,0,2.194-.284A8.34,8.34,0,0,1,1.652,15.1V15a8.4,8.4,0,0,0,3.769,1.058A8.351,8.351,0,0,1,2.84,4.9a23.7,23.7,0,0,0,17.193,8.726,9.413,9.413,0,0,1-.207-1.91A8.346,8.346,0,0,1,34.257,6.014,16.417,16.417,0,0,0,39.549,4a8.316,8.316,0,0,1-3.666,4.6,16.716,16.716,0,0,0,4.8-1.291A17.924,17.924,0,0,1,36.5,11.616Z" transform="translate(1579.744 40.952)"/><path class="d" d="M24.465,20.019a2.157,2.157,0,1,1-2.149-2.339A2.245,2.245,0,0,1,24.465,20.019ZM14.624,17.68a2.347,2.347,0,0,0,0,4.678,2.245,2.245,0,0,0,2.149-2.339A2.231,2.231,0,0,0,14.624,17.68ZM36.877,4.341v37.8c-5.309-4.691-3.611-3.138-9.778-8.872l1.117,3.9H4.32A4.33,4.33,0,0,1,0,32.831V4.341A4.33,4.33,0,0,1,4.32,0H32.557A4.33,4.33,0,0,1,36.877,4.341ZM30.871,24.318a28.219,28.219,0,0,0-3.034-12.285A10.42,10.42,0,0,0,21.915,9.82l-.3.337a14.024,14.024,0,0,1,5.247,2.676,17.905,17.905,0,0,0-15.741-.611c-.78.358-1.243.611-1.243.611a14.216,14.216,0,0,1,5.542-2.76l-.211-.253a10.42,10.42,0,0,0-5.921,2.213A28.219,28.219,0,0,0,6.259,24.318s1.77,3.056,6.427,3.2c0,0,.78-.948,1.412-1.749a6.554,6.554,0,0,1-3.688-2.487c.31.217.821.5.864.527a15.361,15.361,0,0,0,13.149.738,12.059,12.059,0,0,0,2.423-1.243,6.649,6.649,0,0,1-3.814,2.508c.632.8,1.391,1.707,1.391,1.707A7.7,7.7,0,0,0,30.871,24.318Z" transform="translate(1627.648 42.855)"/><path class="d" d="M20.873,12.406a10.7,10.7,0,1,0,10.7,10.7A10.684,10.684,0,0,0,20.873,12.406Zm0,17.659a6.957,6.957,0,1,1,6.957-6.957,6.97,6.97,0,0,1-6.957,6.957Zm13.635-18.1a2.5,2.5,0,1,1-2.5-2.5A2.49,2.49,0,0,1,34.509,11.968ZM41.6,14.5c-.158-3.344-.922-6.305-3.372-8.745s-5.4-3.2-8.745-3.372c-3.446-.2-13.775-.2-17.221,0-3.334.158-6.3.922-8.745,3.362s-3.2,5.4-3.372,8.745c-.2,3.446-.2,13.775,0,17.221.158,3.344.922,6.305,3.372,8.745s5.4,3.2,8.745,3.372c3.446.2,13.775.2,17.221,0,3.344-.158,6.305-.922,8.745-3.372s3.2-5.4,3.372-8.745c.2-3.446.2-13.765,0-17.212ZM37.144,35.41a7.044,7.044,0,0,1-3.968,3.968c-2.748,1.09-9.267.838-12.3.838s-9.565.242-12.3-.838A7.044,7.044,0,0,1,4.6,35.41c-1.09-2.748-.838-9.267-.838-12.3s-.242-9.565.838-12.3A7.044,7.044,0,0,1,8.57,6.836C11.318,5.747,17.837,6,20.873,6s9.565-.242,12.3.838A7.044,7.044,0,0,1,37.144,10.8c1.09,2.748.838,9.267.838,12.3S38.234,32.672,37.144,35.41Z" transform="translate(1677.301 37.959)"/><path class="d" d="M46.495,9.606a5.832,5.832,0,0,0-4.1-4.13C38.772,4.5,24.257,4.5,24.257,4.5s-14.514,0-18.134.976a5.832,5.832,0,0,0-4.1,4.13c-.97,3.643-.97,11.244-.97,11.244s0,7.6.97,11.244a5.745,5.745,0,0,0,4.1,4.064c3.62.976,18.134.976,18.134.976s14.514,0,18.134-.976a5.745,5.745,0,0,0,4.1-4.064c.97-3.643.97-11.244.97-11.244s0-7.6-.97-11.244ZM19.51,27.752v-13.8l12.131,6.9-12.131,6.9Z" transform="translate(1732.535 40.431)"/><text class="e" transform="translate(140 43)"><tspan x="0" y="21">© Copyright - Oceania Build Team</tspan></text></g><text class="f" transform="translate(845 220)"><tspan x="0" y="0">The Team</tspan></text><g transform="translate(676 274)"><path class="g" d="M584.379,0H0" transform="translate(0 85.5)"/><g transform="translate(45 111)"><circle class="h" cx="100.5" cy="100.5" r="100.5"/><text class="i" transform="translate(99.5 254)"><tspan x="-92.178" y="0">seasandsurf</tspan></text></g><g transform="translate(318 111)"><g class="j" transform="translate(23.5)"><circle class="ae" cx="100.5" cy="100.5" r="100.5"/><circle class="af" cx="100.5" cy="100.5" r="100"/></g><text class="i" transform="translate(125 256)"><tspan x="-124.574" y="0">HMAS_Lightning</tspan></text></g><text class="k" transform="translate(285 49)"><tspan x="-168.201" y="0">Project Leaders</tspan></text></g><g transform="translate(532 689.972)"><path class="g" d="M844,0H0" transform="translate(0 85.5)"/><g transform="translate(16 111)"><circle class="l" cx="100.5" cy="100.5" r="100.5" transform="translate(0 0.028)"/><text class="i" transform="translate(99.5 254)"><tspan x="-50.855" y="0">SirCmt</tspan></text><text class="m" transform="translate(101 294.028)"><tspan x="-102.35" y="0">Public Relations</tspan></text></g><g transform="translate(321.5 111)"><text class="m" transform="translate(100.5 296.028)"><tspan x="-60.676" y="0">Technical</tspan></text><g class="n"><circle class="ae" cx="100.5" cy="100.5" r="100.5"/><circle class="af" cx="100.5" cy="100.5" r="100"/></g><text class="i" transform="translate(101.5 256.028)"><tspan x="-84.274" y="0">Coppertine</tspan></text></g><g transform="translate(599 111)"><g class="o" transform="translate(28 0.028)"><circle class="ae" cx="100.5" cy="100.5" r="100.5"/><circle class="af" cx="100.5" cy="100.5" r="100"/></g><text class="m" transform="translate(129 296.028)"><tspan x="-136.376" y="0">Community Manager</tspan></text><text class="i" transform="translate(129.5 256)"><tspan x="-56.498" y="0">Salmon</tspan></text></g><text class="k" transform="translate(423 49.028)"><tspan x="-224.385" y="0">Department Leaders</tspan></text></g><g transform="translate(185 1144.421)"><path class="g" d="M1520.792,0H0" transform="translate(29.777 85.5)"/><g transform="translate(349.5 111)"><circle class="p" cx="100.5" cy="100.5" r="100.5" transform="translate(13.5 -0.421)"/><text class="i" transform="translate(113 254)"><tspan x="-113.305" y="0">ZeusTheMoose</tspan></text><text class="m" transform="translate(114.5 293.579)"><tspan x="-48.491" y="0">Victoria</tspan></text></g><g transform="translate(197 495)"><text class="i" transform="translate(99.5 254)"><tspan x="-47.073" y="0">Hiring</tspan></text><text class="m" transform="translate(101 293.579)"><tspan x="-98.555" y="0">South Australia</tspan></text><g transform="translate(0 -0.421)"><g class="a"><circle class="ae" cx="100.5" cy="100.5" r="100.5"/><circle class="af" cx="100.5" cy="100.5" r="100"/></g><g class="q" transform="translate(0 0.421)"><g class="r" transform="translate(41 132.579)"><circle class="ae" cx="60" cy="60" r="60"/><circle class="af" cx="60" cy="60" r="57.5"/></g></g><g class="r" transform="translate(65 59)"><circle class="ae" cx="36" cy="36" r="36"/><circle class="af" cx="36" cy="36" r="33.5"/></g></g></g><g transform="translate(0 111)"><circle class="s" cx="100.5" cy="100.5" r="100.5" transform="translate(58 -0.421)"/><text class="i" transform="translate(157.5 254)"><tspan x="-47.073" y="0">Hiring</tspan></text><text class="m" transform="translate(159 293.579)"><tspan x="-113.402" y="0">New South Wales</tspan><tspan x="-172.697" y="39">Australian Capital Territory</tspan></text><g transform="translate(58 -0.421)"><g class="a"><circle class="ae" cx="100.5" cy="100.5" r="100.5"/><circle class="af" cx="100.5" cy="100.5" r="100"/></g><g class="q" transform="translate(0 0.421)"><g class="r" transform="translate(41 132.579)"><circle class="ae" cx="60" cy="60" r="60"/><circle class="af" cx="60" cy="60" r="57.5"/></g></g><g class="r" transform="translate(65 59)"><circle class="ae" cx="36" cy="36" r="36"/><circle class="af" cx="36" cy="36" r="33.5"/></g></g></g><g transform="translate(668.5 111)"><text class="m" transform="translate(100.5 295.579)"><tspan x="-79" y="0">Queensland</tspan></text><g class="t"><circle class="ae" cx="100.5" cy="100.5" r="100.5"/><circle class="af" cx="100.5" cy="100.5" r="100"/></g><text class="i" transform="translate(101.5 255.579)"><tspan x="-58.962" y="0">Thing_o</tspan></text></g><g transform="translate(495 495)"><text class="m" transform="translate(109 295.579)"><tspan x="-119.696" y="0">Northern Territory</tspan></text><text class="i" transform="translate(110 255.579)"><tspan x="-47.073" y="0">Hiring</tspan></text><g transform="translate(9 -0.421)"><g class="a"><circle class="ae" cx="100.5" cy="100.5" r="100.5"/><circle class="af" cx="100.5" cy="100.5" r="100"/></g><g class="q" transform="translate(0 0.421)"><g class="r" transform="translate(41 132.579)"><circle class="ae" cx="60" cy="60" r="60"/><circle class="af" cx="60" cy="60" r="57.5"/></g></g><g class="r" transform="translate(65 59)"><circle class="ae" cx="36" cy="36" r="36"/><circle class="af" cx="36" cy="36" r="33.5"/></g></g></g><g transform="translate(974 111)"><g class="u" transform="translate(0 -0.421)"><circle class="ae" cx="100.5" cy="100.5" r="100.5"/><circle class="af" cx="100.5" cy="100.5" r="100"/></g><text class="m" transform="translate(101 295.579)"><tspan x="-84.805" y="0">New Zealand</tspan></text><text class="i" transform="translate(101.5 256)"><tspan x="-63.581" y="0">Mellcula</tspan></text></g><g transform="translate(810 495)"><text class="m" transform="translate(100 295.579)"><tspan x="-62.029" y="0">Tasmania</tspan></text><text class="i" transform="translate(100.5 256)"><tspan x="-47.073" y="0">Hiring</tspan></text><g transform="translate(0 -0.421)"><g class="a"><circle class="ae" cx="100.5" cy="100.5" r="100.5"/><circle class="af" cx="100.5" cy="100.5" r="100"/></g><g class="q" transform="translate(0 0.421)"><g class="r" transform="translate(41 132.579)"><circle class="ae" cx="60" cy="60" r="60"/><circle class="af" cx="60" cy="60" r="57.5"/></g></g><g class="r" transform="translate(65 59)"><circle class="ae" cx="36" cy="36" r="36"/><circle class="af" cx="36" cy="36" r="33.5"/></g></g></g><g transform="translate(1305 109)"><g class="v" transform="translate(4 -0.421)"><circle class="ae" cx="100.5" cy="100.5" r="100.5"/><circle class="af" cx="100.5" cy="100.5" r="100"/></g><text class="m" transform="translate(105 295.579)"><tspan x="-114.853" y="0">Western Australia</tspan></text><text class="i" transform="translate(105.5 256)"><tspan x="-9.858" y="0">X</tspan></text></g><g transform="translate(1108 495)"><text class="m" transform="translate(101 295.579)"><tspan x="-45.305" y="0">Islands</tspan></text><text class="i" transform="translate(101.5 256)"><tspan x="-47.073" y="0">Hiring</tspan></text><g transform="translate(0 -0.421)"><g class="a"><circle class="ae" cx="100.5" cy="100.5" r="100.5"/><circle class="af" cx="100.5" cy="100.5" r="100"/></g><g class="q" transform="translate(0 0.421)"><g class="r" transform="translate(41 132.579)"><circle class="ae" cx="60" cy="60" r="60"/><circle class="af" cx="60" cy="60" r="57.5"/></g></g><g class="r" transform="translate(65 59)"><circle class="ae" cx="36" cy="36" r="36"/><circle class="af" cx="36" cy="36" r="33.5"/></g></g></g><text class="k" transform="translate(770 48.579)"><tspan x="-185.175" y="0">Regional Leaders</tspan></text></g><rect class="w" width="1920" height="128"/><g transform="translate(1595 22)"><rect class="x" width="274" height="85" rx="42.5"/><circle class="y" cx="42.5" cy="42.5" r="42.5"/><text class="z" transform="translate(105 55)"><tspan x="0" y="0">Coppertine</tspan></text></g><rect class="aa" width="100" height="100" transform="translate(39 14)"/><text class="ab" transform="translate(164 76)"><tspan x="0" y="0">Oceania Build Team</tspan></text><g transform="translate(-60.5 2)"><g transform="translate(707.5 45)"><text class="ac" transform="translate(0 32)"><tspan x="0" y="0">Showcase</tspan></text></g><text class="ac" transform="translate(872.5 77)"><tspan x="0" y="0">The Team</tspan></text><text class="ac" transform="translate(1036.5 77)"><tspan x="0" y="0">Apply</tspan></text><text class="ac" transform="translate(1142 77)"><tspan x="0" y="0">FAQ</tspan></text><text class="ac" transform="translate(1230 77)"><tspan x="0" y="0">Discord</tspan></text><line class="ad" y2="40" transform="translate(1214 45.5)"/><line class="ad" y2="40" transform="translate(1126 45.5)"/><line class="ad" y2="40" transform="translate(1020.5 44.5)"/><line class="ad" y2="40" transform="translate(857 44.5)"/></g></g></svg>