<svg xmlns="http://www.w3.org/2000/svg" xmlns:xlink="http://www.w3.org/1999/xlink" width="1920" height="1266" viewBox="0 0 1920 1266"><defs><style>.a{clip-path:url(#f);}.b{fill:#28567a;}.c,.d,.g,.h,.l,.n,.p,.q,.r{fill:#fff;}.d{font-size:21px;font-family:SegoeUI, Segoe UI;}.e{fill:#3a77a7;}.f{fill:url(#a);}.g,.h,.l{font-size:30px;}.g,.n{font-family:OpenSans-Regular, Open Sans;}.h{font-family:OpenSans-Light, Open Sans;}.h,.l,.p,.q,.r{font-weight:300;}.i,.o{fill:none;stroke:#fff;}.j{fill:#36546f;}.k{fill:url(#b);}.l{font-family:SegoeUI-Semilight, Segoe UI;}.m{fill:url(#c);}.n{font-size:51px;}.o{stroke-width:3px;}.p,.q{font-size:24px;}.p,.q,.r{font-family:Roboto-Light, Roboto;}.q{text-decoration:underline;}.r{font-size:27px;}.s{fill:#1e3040;}</style><pattern id="a" preserveAspectRatio="xMidYMid slice" width="100%" height="100%" viewBox="0 0 4167 4167"><image width="4167" height="4167" xlink:href="../../../../../Desktop/unknown.png"/></pattern><pattern id="b" preserveAspectRatio="xMidYMid slice" width="100%" height="100%" viewBox="0 0 2069 2069"><image width="2069" height="2069" xlink:href="../../../../Drawing/sauce-chan.png"/></pattern><pattern id="c" preserveAspectRatio="xMidYMid slice" width="100%" height="100%" viewBox="0 0 1920 1017"><image width="1920" height="1017" xlink:href="../../../../../Downloads/2020-10-08_14.14.04.png"/></pattern><clipPath id="f"><rect width="1920" height="1266"/></clipPath></defs><g id="e" class="a"><rect class="s" width="1920" height="1266"/><g transform="translate(0 1144)"><rect class="b" width="1920" height="122"/><path class="c" d="M42.325,2.25H5.079A5.079,5.079,0,0,0,0,7.329V44.575a5.079,5.079,0,0,0,5.079,5.079H19.6V33.538H12.936V25.952H19.6V20.17c0-6.576,3.915-10.209,9.911-10.209a40.385,40.385,0,0,1,5.875.512v6.455H32.079c-3.26,0-4.277,2.023-4.277,4.1v4.926H35.08l-1.164,7.586H27.8V49.654H42.325A5.079,5.079,0,0,0,47.4,44.575V7.329A5.079,5.079,0,0,0,42.325,2.25Z" transform="translate(1520 35)"/><path class="c" d="M36.5,11.616c.026.361.026.723.026,1.084,0,11.023-8.39,23.724-23.724,23.724A23.564,23.564,0,0,1,0,32.681a17.25,17.25,0,0,0,2.014.1,16.7,16.7,0,0,0,10.352-3.563,8.353,8.353,0,0,1-7.8-5.783,10.515,10.515,0,0,0,1.575.129,8.819,8.819,0,0,0,2.194-.284A8.34,8.34,0,0,1,1.652,15.1V15a8.4,8.4,0,0,0,3.769,1.058A8.351,8.351,0,0,1,2.84,4.9a23.7,23.7,0,0,0,17.193,8.726,9.413,9.413,0,0,1-.207-1.91A8.346,8.346,0,0,1,34.257,6.014,16.417,16.417,0,0,0,39.549,4a8.316,8.316,0,0,1-3.666,4.6,16.716,16.716,0,0,0,4.8-1.291A17.924,17.924,0,0,1,36.5,11.616Z" transform="translate(1579.744 40.952)"/><path class="c" d="M24.465,20.019a2.157,2.157,0,1,1-2.149-2.339A2.245,2.245,0,0,1,24.465,20.019ZM14.624,17.68a2.347,2.347,0,0,0,0,4.678,2.245,2.245,0,0,0,2.149-2.339A2.231,2.231,0,0,0,14.624,17.68ZM36.877,4.341v37.8c-5.309-4.691-3.611-3.138-9.778-8.872l1.117,3.9H4.32A4.33,4.33,0,0,1,0,32.831V4.341A4.33,4.33,0,0,1,4.32,0H32.557A4.33,4.33,0,0,1,36.877,4.341ZM30.871,24.318a28.219,28.219,0,0,0-3.034-12.285A10.42,10.42,0,0,0,21.915,9.82l-.3.337a14.024,14.024,0,0,1,5.247,2.676,17.905,17.905,0,0,0-15.741-.611c-.78.358-1.243.611-1.243.611a14.216,14.216,0,0,1,5.542-2.76l-.211-.253a10.42,10.42,0,0,0-5.921,2.213A28.219,28.219,0,0,0,6.259,24.318s1.77,3.056,6.427,3.2c0,0,.78-.948,1.412-1.749a6.554,6.554,0,0,1-3.688-2.487c.31.217.821.5.864.527a15.361,15.361,0,0,0,13.149.738,12.059,12.059,0,0,0,2.423-1.243,6.649,6.649,0,0,1-3.814,2.508c.632.8,1.391,1.707,1.391,1.707A7.7,7.7,0,0,0,30.871,24.318Z" transform="translate(1627.648 42.855)"/><path class="c" d="M20.873,12.406a10.7,10.7,0,1,0,10.7,10.7A10.684,10.684,0,0,0,20.873,12.406Zm0,17.659a6.957,6.957,0,1,1,6.957-6.957,6.97,6.97,0,0,1-6.957,6.957Zm13.635-18.1a2.5,2.5,0,1,1-2.5-2.5A2.49,2.49,0,0,1,34.509,11.968ZM41.6,14.5c-.158-3.344-.922-6.305-3.372-8.745s-5.4-3.2-8.745-3.372c-3.446-.2-13.775-.2-17.221,0-3.334.158-6.3.922-8.745,3.362s-3.2,5.4-3.372,8.745c-.2,3.446-.2,13.775,0,17.221.158,3.344.922,6.305,3.372,8.745s5.4,3.2,8.745,3.372c3.446.2,13.775.2,17.221,0,3.344-.158,6.305-.922,8.745-3.372s3.2-5.4,3.372-8.745c.2-3.446.2-13.765,0-17.212ZM37.144,35.41a7.044,7.044,0,0,1-3.968,3.968c-2.748,1.09-9.267.838-12.3.838s-9.565.242-12.3-.838A7.044,7.044,0,0,1,4.6,35.41c-1.09-2.748-.838-9.267-.838-12.3s-.242-9.565.838-12.3A7.044,7.044,0,0,1,8.57,6.836C11.318,5.747,17.837,6,20.873,6s9.565-.242,12.3.838A7.044,7.044,0,0,1,37.144,10.8c1.09,2.748.838,9.267.838,12.3S38.234,32.672,37.144,35.41Z" transform="translate(1677.301 37.959)"/><path class="c" d="M46.495,9.606a5.832,5.832,0,0,0-4.1-4.13C38.772,4.5,24.257,4.5,24.257,4.5s-14.514,0-18.134.976a5.832,5.832,0,0,0-4.1,4.13c-.97,3.643-.97,11.244-.97,11.244s0,7.6.97,11.244a5.745,5.745,0,0,0,4.1,4.064c3.62.976,18.134.976,18.134.976s14.514,0,18.134-.976a5.745,5.745,0,0,0,4.1-4.064c.97-3.643.97-11.244.97-11.244s0-7.6-.97-11.244ZM19.51,27.752v-13.8l12.131,6.9-12.131,6.9Z" transform="translate(1732.535 40.431)"/><text class="d" transform="translate(140 43)"><tspan x="0" y="23">© Copyright - Oceania Build Team</tspan></text></g><rect class="e" width="1920" height="128"/><rect class="f" width="100" height="100" transform="translate(39 14)"/><text class="g" transform="translate(164 76)"><tspan x="0" y="0">Oceania Build Team</tspan></text><g transform="translate(-60.5 2)"><g transform="translate(707.5 45)"><text class="h" transform="translate(0 32)"><tspan x="0" y="0">Showcase</tspan></text></g><text class="h" transform="translate(872.5 77)"><tspan x="0" y="0">The Team</tspan></text><text class="h" transform="translate(1036.5 77)"><tspan x="0" y="0">Claims</tspan></text><text class="h" transform="translate(1157 77)"><tspan x="0" y="0">FAQ</tspan></text><text class="h" transform="translate(1245 77)"><tspan x="0" y="0">Discord</tspan></text><line class="i" y2="40" transform="translate(1229 45.5)"/><line class="i" y2="40" transform="translate(1141 45.5)"/><line class="i" y2="40" transform="translate(1020.5 44.5)"/><line class="i" y2="40" transform="translate(857 44.5)"/></g><g transform="translate(1595 22)"><rect class="j" width="274" height="85" rx="42.5"/><circle class="k" cx="42.5" cy="42.5" r="42.5"/><text class="l" transform="translate(105 55)"><tspan x="0" y="0">Coppertine</tspan></text></g><rect class="m" width="1920" height="313" transform="translate(0 128)"/><circle class="k" cx="106" cy="106" r="106" transform="translate(50 335)"/><text class="n" transform="translate(278 518)"><tspan x="0" y="0">Coppertine</tspan></text><line class="o" x2="1502" transform="translate(278 589)"/><g transform="translate(0 4)"><text class="p" transform="translate(606 559)"><tspan x="0" y="0">Coppertine#1718</tspan></text><path class="c" d="M24.962,20.425a2.2,2.2,0,1,1-2.193-2.386A2.291,2.291,0,0,1,24.962,20.425Zm-10.04-2.386a2.4,2.4,0,0,0,0,4.773,2.291,2.291,0,0,0,2.193-2.386A2.277,2.277,0,0,0,14.921,18.039Zm22.7-13.61V43c-5.416-4.787-3.684-3.2-9.976-9.052l1.14,3.978H4.408A4.418,4.418,0,0,1,0,33.5V4.429A4.418,4.418,0,0,1,4.408,0h28.81A4.418,4.418,0,0,1,37.625,4.429ZM31.5,24.811a28.792,28.792,0,0,0-3.1-12.535,10.632,10.632,0,0,0-6.042-2.258l-.3.344a14.309,14.309,0,0,1,5.354,2.731,18.268,18.268,0,0,0-16.06-.624c-.8.365-1.269.624-1.269.624a14.5,14.5,0,0,1,5.655-2.816l-.215-.258a10.632,10.632,0,0,0-6.042,2.258,28.792,28.792,0,0,0-3.1,12.534s1.806,3.118,6.558,3.268c0,0,.8-.967,1.441-1.784a6.687,6.687,0,0,1-3.763-2.537c.316.221.838.508.881.538a15.672,15.672,0,0,0,13.416.752,12.3,12.3,0,0,0,2.472-1.268A6.784,6.784,0,0,1,23.5,26.338c.645.817,1.419,1.741,1.419,1.741C29.67,27.929,31.5,24.811,31.5,24.811Z" transform="translate(554 529)"/><path class="c" d="M15.381.425,2,5.442A3.092,3.092,0,0,0,0,8.337v14.48a3.086,3.086,0,0,0,1.7,2.76l13.38,6.69a3.066,3.066,0,0,0,2.76,0l13.38-6.69a3.082,3.082,0,0,0,1.7-2.76V8.337a3.083,3.083,0,0,0-2-2.888L17.549.431A3.034,3.034,0,0,0,15.381.425Zm1.087,3.995L28.819,9.051v.071L16.468,14.139,4.117,9.122V9.051Zm2.059,22.9V17.742l10.293-4.181v8.614Z" transform="translate(806.511 533.347)"/><text class="p" transform="translate(854 559)"><tspan x="0" y="0">shuffler10</tspan></text><path class="c" d="M33.4,10.915c.024.331.024.661.024.992,0,10.085-7.676,21.705-21.705,21.705A21.558,21.558,0,0,1,0,30.188a15.782,15.782,0,0,0,1.842.094,15.278,15.278,0,0,0,9.471-3.259A7.642,7.642,0,0,1,4.18,21.732a9.62,9.62,0,0,0,1.441.118,8.068,8.068,0,0,0,2.008-.26A7.63,7.63,0,0,1,1.512,14.1v-.094a7.683,7.683,0,0,0,3.448.968A7.64,7.64,0,0,1,2.6,4.774a21.684,21.684,0,0,0,15.73,7.983,8.612,8.612,0,0,1-.189-1.748,7.636,7.636,0,0,1,13.2-5.22,15.02,15.02,0,0,0,4.842-1.842,7.608,7.608,0,0,1-3.354,4.2,15.293,15.293,0,0,0,4.393-1.181A16.4,16.4,0,0,1,33.4,10.915Z" transform="translate(977.362 532.328)"/><text class="p" transform="translate(1029 559)"><tspan x="0" y="0">shuffler2001</tspan></text><path class="c" d="M32.312,12.657a.387.387,0,0,1,.624.3V26.114A3.089,3.089,0,0,1,29.848,29.2H3.088A3.089,3.089,0,0,1,0,26.114V12.966a.385.385,0,0,1,.624-.3c1.441,1.119,3.352,2.541,9.913,7.308,1.357.991,3.647,3.075,5.931,3.062,2.3.019,4.632-2.11,5.938-3.062C28.967,15.2,30.871,13.776,32.312,12.657ZM16.468,20.968c1.492.026,3.641-1.878,4.722-2.663,8.536-6.195,9.186-6.735,11.155-8.279a1.539,1.539,0,0,0,.592-1.216V7.588A3.089,3.089,0,0,0,29.848,4.5H3.088A3.089,3.089,0,0,0,0,7.588V8.81a1.549,1.549,0,0,0,.592,1.216C2.56,11.563,3.21,12.11,11.746,18.3,12.827,19.09,14.976,20.994,16.468,20.968Z" transform="translate(1177.957 533.649)"/><text class="q" transform="translate(1226 559)"><tspan x="0" y="0">coppertine@bteoce.com</tspan></text></g><text class="r" transform="translate(278 562)"><tspan x="0" y="0">Technical Leader</tspan></text></g></svg>